<svg xmlns="http://www.w3.org/2000/svg" viewBox="0 0 800 450" width="800" height="450">
  <defs>
    <linearGradient id="grad3" x1="0%" y1="0%" x2="100%" y2="100%">
      <stop offset="0%" stop-color="#431407" />
      <stop offset="100%" stop-color="#0f172a" />
    </linearGradient>
  </defs>
  <rect width="800" height="450" fill="url(#grad3)"/>
  <rect x="50" y="40" width="700" height="370" rx="12" fill="#131926" stroke="#1f293d" stroke-width="2"/>
  
  <!-- Header Bar -->
  <rect x="50" y="40" width="700" height="40" rx="12" fill="#1e293b"/>
  <circle cx="80" cy="60" r="6" fill="#ef4444"/>
  <circle cx="100" cy="60" r="6" fill="#f59e0b"/>
  <circle cx="120" cy="60" r="6" fill="#10b981"/>
  <text x="400" y="65" font-family="'Fira Code', monospace" font-size="14" fill="#94a3b8" text-anchor="middle">lab-reservation.ju.edu.et</text>
  
  <!-- Content Mockup -->
  <rect x="80" y="100" width="640" height="50" rx="6" fill="#1e293b"/>
  <text x="100" y="130" font-family="'Inter', sans-serif" font-size="14" fill="#f97316" font-weight="700">Jimma University ICT ICT Office — Centralized Lab Reservation</text>

  <rect x="80" y="170" width="300" height="190" rx="6" fill="#1e293b"/>
  <text x="100" y="200" font-family="'Inter', sans-serif" font-size="13" fill="#cbd5e1">Teacher & Department Head Workflow</text>
  <rect x="100" y="220" width="260" height="30" rx="4" fill="#334155"/>
  <rect x="100" y="260" width="260" height="30" rx="4" fill="#334155"/>

  <rect x="420" y="170" width="300" height="190" rx="6" fill="#1e293b"/>
  <text x="440" y="200" font-family="'Inter', sans-serif" font-size="13" fill="#cbd5e1">Schedule & Lab Availability Calendar</text>
  <rect x="440" y="220" width="260" height="120" rx="4" fill="#334155"/>

  <text x="400" y="425" font-family="'Inter', sans-serif" font-weight="600" font-size="16" fill="#fb923c" text-anchor="middle">Centralized Lab Reservation System — University ICT Internship</text>
</svg>
